<svg width="37" height="40" viewBox="0 0 37 40" fill="none" xmlns="http://www.w3.org/2000/svg">
<path d="M35 18.2872L19.3984 34.8341C17.487 36.8612 14.8947 38 12.1917 38C9.48871 38 6.8964 36.8612 4.98509 34.8341C3.07377 32.8069 2 30.0576 2 27.1908C2 24.324 3.07377 21.5747 4.98509 19.5475L19.5342 4.117C20.8084 2.7632 22.5375 2.00169 24.3411 2C26.1447 1.99831 27.875 2.75658 29.1515 4.10799C30.428 5.4594 31.146 7.29326 31.1476 9.20613C31.1492 11.119 30.4342 12.9542 29.16 14.308L14.577 29.7386C13.9398 30.4143 13.0757 30.7939 12.1747 30.7939C11.2737 30.7939 10.4096 30.4143 9.77253 29.7386C9.13543 29.0628 8.7775 28.1464 8.7775 27.1908C8.7775 26.2352 9.13543 25.3188 9.77253 24.6431L24.1858 9.37455" stroke="#ABABAB" stroke-width="3" stroke-linecap="round" stroke-linejoin="round"/>
</svg>
