<svg width="22" height="22" viewBox="0 0 22 22" fill="none" xmlns="http://www.w3.org/2000/svg">
<g clip-path="url(#clip0_1087_2729)">
<path fill-rule="evenodd" clip-rule="evenodd" d="M21.4297 1.88357C22.0986 2.43643 22.1929 3.42693 21.6399 4.09593L9.0057 19.3848L9.0019 19.3893C8.71452 19.7344 8.35384 20.0111 7.9461 20.1992C7.53835 20.3875 7.09379 20.4824 6.64476 20.4772C6.18837 20.4716 5.73777 20.3625 5.32953 20.1584C4.92266 19.955 4.56698 19.6623 4.28901 19.3023L0.33109 14.2135C-0.201734 13.5285 -0.0783232 12.5412 0.606736 12.0083C1.2918 11.4755 2.27909 11.5989 2.81192 12.284L6.68324 17.2614L19.2173 2.09389C19.7701 1.42488 20.7607 1.33072 21.4297 1.88357Z" fill="#348CFF"/>
</g>
<defs>
<clipPath id="clip0_1087_2729">
<rect width="22" height="22" fill="white"/>
</clipPath>
</defs>
</svg>
