<svg width="41" height="36" viewBox="0 0 41 36" fill="none" xmlns="http://www.w3.org/2000/svg">
<path d="M38.7222 0C39.9821 0 41 1.00547 41 2.25V33.75C41 34.9945 39.9821 36 38.7222 36C37.4623 36 36.4444 34.9945 36.4444 33.75V2.25C36.4444 1.00547 37.4623 0 38.7222 0ZM29.6111 6.75C30.871 6.75 31.8889 7.75547 31.8889 9V33.75C31.8889 34.9945 30.871 36 29.6111 36C28.3512 36 27.3333 34.9945 27.3333 33.75V9C27.3333 7.75547 28.3512 6.75 29.6111 6.75ZM22.7778 15.75V33.75C22.7778 34.9945 21.7599 36 20.5 36C19.2401 36 18.2222 34.9945 18.2222 33.75V15.75C18.2222 14.5055 19.2401 13.5 20.5 13.5C21.7599 13.5 22.7778 14.5055 22.7778 15.75ZM11.3889 20.25C12.6488 20.25 13.6667 21.2555 13.6667 22.5V33.75C13.6667 34.9945 12.6488 36 11.3889 36C10.129 36 9.11111 34.9945 9.11111 33.75V22.5C9.11111 21.2555 10.129 20.25 11.3889 20.25ZM4.55556 29.25V33.75C4.55556 34.9945 3.53767 36 2.27778 36C1.01788 36 0 34.9945 0 33.75V29.25C0 28.0055 1.01788 27 2.27778 27C3.53767 27 4.55556 28.0055 4.55556 29.25Z" fill="#348CFF"/>
</svg>
