<svg width="33" height="33" viewBox="0 0 33 33" fill="none" xmlns="http://www.w3.org/2000/svg">
<path d="M28.875 15.8398H23.3269C22.7519 15.8397 22.1882 15.9964 21.6991 16.2924C21.21 16.5883 20.8148 17.0119 20.558 17.5155L19.3514 19.8775H13.6486L12.442 17.5155C12.1852 17.0119 11.79 16.5883 11.3009 16.2924C10.8118 15.9964 10.2481 15.8397 9.67312 15.8398H4.125C3.03098 15.8398 1.98177 16.2652 1.20818 17.0224C0.434597 17.7796 0 18.8066 0 19.8775V26.9434C0 28.5496 0.651896 30.0901 1.81228 31.2259C2.97266 32.3618 4.54647 32.9998 6.1875 32.9998H26.8125C28.4535 32.9998 30.0273 32.3618 31.1877 31.2259C32.3481 30.0901 33 28.5496 33 26.9434V19.8775C33 18.8066 32.5654 17.7796 31.7918 17.0224C31.0182 16.2652 29.969 15.8398 28.875 15.8398ZM26.8125 28.9622H6.1875C5.64049 28.9622 5.11589 28.7495 4.72909 28.3709C4.3423 27.9923 4.125 27.4788 4.125 26.9434V19.8775H9.03891L10.2455 22.2395C10.5023 22.7431 10.8975 23.1666 11.3866 23.4626C11.8757 23.7586 12.4394 23.9153 13.0144 23.9151H19.9856C20.5606 23.9153 21.1243 23.7586 21.6134 23.4626C22.1025 23.1666 22.4977 22.7431 22.7545 22.2395L23.9611 19.8775H28.875V26.9434C28.875 27.4788 28.6577 27.9923 28.2709 28.3709C27.8841 28.7495 27.3595 28.9622 26.8125 28.9622Z" fill="#818181"/>
<path d="M21.8594 0.580556C21.6756 0.396511 21.4572 0.250506 21.2169 0.15089C20.9766 0.0512743 20.719 0 20.4589 0C20.1987 0 19.9411 0.0512743 19.7008 0.15089C19.4605 0.250506 19.2422 0.396511 19.0583 0.580556L16.4998 3.13903L13.9412 0.580556C13.5697 0.209124 13.066 0.000456839 12.5407 0.000456843C12.0154 0.000456847 11.5116 0.209124 11.1401 0.580556C10.7687 0.951987 10.56 1.45576 10.56 1.98104C10.56 2.50632 10.7687 3.01009 11.1401 3.38152L13.6987 5.94L11.1401 8.49848C10.7687 8.86991 10.56 9.37368 10.56 9.89896C10.56 10.4242 10.7687 10.928 11.1401 11.2994C11.5116 11.6709 12.0154 11.8795 12.5407 11.8795C13.066 11.8795 13.5697 11.6709 13.9412 11.2994L16.4998 8.74097L19.0583 11.2994C19.2422 11.4835 19.4605 11.6295 19.7008 11.7291C19.9411 11.8287 20.1987 11.88 20.4589 11.88C20.719 11.88 20.9766 11.8287 21.2169 11.7291C21.4572 11.6295 21.6756 11.4835 21.8594 11.2994C22.0435 11.1156 22.1895 10.8973 22.2891 10.657C22.3887 10.4167 22.44 10.1591 22.44 9.89896C22.44 9.63883 22.3887 9.38124 22.2891 9.14094C22.1895 8.90063 22.0435 8.68232 21.8594 8.49848L19.3008 5.94L21.8594 3.38152C22.0435 3.19768 22.1895 2.97937 22.2891 2.73906C22.3887 2.49876 22.44 2.24117 22.44 1.98104C22.44 1.7209 22.3887 1.46332 22.2891 1.22302C22.1895 0.98271 22.0435 0.764396 21.8594 0.580556Z" fill="#818181"/>
</svg>
