<svg width="61" height="61" viewBox="0 0 61 61" fill="none" xmlns="http://www.w3.org/2000/svg">
<path fill-rule="evenodd" clip-rule="evenodd" d="M30.5 0C13.6546 0 0 13.6546 0 30.5C0 47.3454 13.6546 61 30.5 61C47.3454 61 61 47.3454 61 30.5C61 13.6546 47.3454 0 30.5 0ZM32.8462 21.1154C32.8462 20.4931 32.599 19.8964 32.159 19.4564C31.719 19.0164 31.1222 18.7692 30.5 18.7692C29.8778 18.7692 29.281 19.0164 28.841 19.4564C28.401 19.8964 28.1538 20.4931 28.1538 21.1154V28.1538H21.1154C20.4931 28.1538 19.8964 28.401 19.4564 28.841C19.0164 29.281 18.7692 29.8778 18.7692 30.5C18.7692 31.1222 19.0164 31.719 19.4564 32.159C19.8964 32.599 20.4931 32.8462 21.1154 32.8462H28.1538V39.8846C28.1538 40.5069 28.401 41.1036 28.841 41.5436C29.281 41.9836 29.8778 42.2308 30.5 42.2308C31.1222 42.2308 31.719 41.9836 32.159 41.5436C32.599 41.1036 32.8462 40.5069 32.8462 39.8846V32.8462H39.8846C40.5069 32.8462 41.1036 32.599 41.5436 32.159C41.9836 31.719 42.2308 31.1222 42.2308 30.5C42.2308 29.8778 41.9836 29.281 41.5436 28.841C41.1036 28.401 40.5069 28.1538 39.8846 28.1538H32.8462V21.1154Z" fill="#348CFF"/>
</svg>
