<svg width="20" height="20" viewBox="0 0 20 20" fill="none" xmlns="http://www.w3.org/2000/svg">
<path d="M3 4.125C3 3.03098 3.4346 1.98177 4.20818 1.20818C4.98177 0.434597 6.03098 0 7.125 0C8.21902 0 9.26823 0.434597 10.0418 1.20818C10.8154 1.98177 11.25 3.03098 11.25 4.125C11.25 5.21902 10.8154 6.26823 10.0418 7.04182C9.26823 7.8154 8.21902 8.25 7.125 8.25C6.03098 8.25 4.98177 7.8154 4.20818 7.04182C3.4346 6.26823 3 5.21902 3 4.125ZM0 16.875C0 14.9853 0.750667 13.1731 2.08686 11.8369C3.42306 10.5007 5.23533 9.75 7.125 9.75C9.01467 9.75 10.8269 10.5007 12.1631 11.8369C13.4993 13.1731 14.25 14.9853 14.25 16.875V16.878L14.249 16.997C14.2469 17.1242 14.2124 17.2487 14.1489 17.3589C14.0854 17.4691 13.995 17.5614 13.886 17.627C11.8452 18.856 9.50727 19.5036 7.125 19.5C4.653 19.5 2.339 18.816 0.365 17.627C0.255851 17.5615 0.165167 17.4693 0.101487 17.3591C0.0378064 17.2489 0.00322522 17.1243 0.000999928 16.997L0 16.875ZM16.5 5.25C16.5 5.05109 16.421 4.86032 16.2803 4.71967C16.1397 4.57902 15.9489 4.5 15.75 4.5C15.5511 4.5 15.3603 4.57902 15.2197 4.71967C15.079 4.86032 15 5.05109 15 5.25V7.5H12.75C12.5511 7.5 12.3603 7.57902 12.2197 7.71967C12.079 7.86032 12 8.05109 12 8.25C12 8.44891 12.079 8.63968 12.2197 8.78033C12.3603 8.92098 12.5511 9 12.75 9H15V11.25C15 11.4489 15.079 11.6397 15.2197 11.7803C15.3603 11.921 15.5511 12 15.75 12C15.9489 12 16.1397 11.921 16.2803 11.7803C16.421 11.6397 16.5 11.4489 16.5 11.25V9H18.75C18.9489 9 19.1397 8.92098 19.2803 8.78033C19.421 8.63968 19.5 8.44891 19.5 8.25C19.5 8.05109 19.421 7.86032 19.2803 7.71967C19.1397 7.57902 18.9489 7.5 18.75 7.5H16.5V5.25Z" fill="white"/>
</svg>
