<svg width="17" height="17" viewBox="0 0 17 17" fill="none" xmlns="http://www.w3.org/2000/svg">
<path d="M8 2H2.55556C2.143 2 1.74733 2.16389 1.45561 2.45561C1.16389 2.74733 1 3.143 1 3.55556V14.4444C1 14.857 1.16389 15.2527 1.45561 15.5444C1.74733 15.8361 2.143 16 2.55556 16H13.4444C13.857 16 14.2527 15.8361 14.5444 15.5444C14.8361 15.2527 15 14.857 15 14.4444V9" stroke="white" stroke-width="2" stroke-linecap="round" stroke-linejoin="round"/>
<path d="M13.1547 1.48817C13.4673 1.1756 13.8912 1 14.3333 1C14.7753 1 15.1993 1.1756 15.5118 1.48817C15.8244 1.80074 16 2.22467 16 2.66671C16 3.10875 15.8244 3.53269 15.5118 3.84526L8.43035 10.9275C8.24379 11.1139 8.01331 11.2504 7.76015 11.3243L5.50285 11.9843C5.43524 12.004 5.36357 12.0052 5.29535 11.9877C5.22713 11.9702 5.16486 11.9347 5.11506 11.8849C5.06526 11.8351 5.02977 11.7729 5.01229 11.7046C4.99481 11.6364 4.99599 11.5648 5.01571 11.4972L5.6757 9.23985C5.74997 8.98689 5.88669 8.75669 6.07326 8.57044L13.1547 1.48817Z" stroke="white" stroke-width="2" stroke-linecap="round" stroke-linejoin="round"/>
</svg>
