<svg width="13" height="12" viewBox="0 0 13 12" fill="none" xmlns="http://www.w3.org/2000/svg">
<path d="M1.40224 1.02834C1.35174 1.00369 1.295 0.994827 1.23939 1.0029C1.18379 1.01098 1.1319 1.03563 1.09051 1.07363C1.04912 1.11162 1.02014 1.16121 1.00734 1.21593C0.99455 1.27064 0.998538 1.32794 1.01879 1.38035L2.6149 5.66229C2.70904 5.91505 2.70904 6.19326 2.6149 6.44603L1.01935 10.728C0.999202 10.7803 0.995266 10.8375 1.00805 10.8921C1.02084 10.9467 1.04976 10.9963 1.09105 11.0342C1.13235 11.0722 1.1841 11.0968 1.2396 11.105C1.2951 11.1132 1.35176 11.1044 1.40224 11.08L11.5078 6.30792C11.5558 6.28518 11.5965 6.24926 11.6249 6.20434C11.6534 6.15941 11.6685 6.10733 11.6685 6.05416C11.6685 6.00098 11.6534 5.9489 11.6249 5.90398C11.5965 5.85905 11.5558 5.82313 11.5078 5.8004L1.40224 1.02834Z" stroke="white" stroke-linecap="round" stroke-linejoin="round"/>
<path d="M2.68359 6.05469H11.6663" stroke="white" stroke-linecap="round" stroke-linejoin="round"/>
</svg>
