<svg width="33" height="42" viewBox="0 0 33 42" fill="none" xmlns="http://www.w3.org/2000/svg">
<path d="M27.2742 3.65921C27.7812 2.53542 27.4031 1.22296 26.3635 0.501115C25.3239 -0.220734 23.9062 -0.155112 22.9353 0.648766L0.940078 19.0231C0.0808887 19.745 -0.22842 20.9016 0.175399 21.9187C0.579218 22.9359 1.61025 23.6249 2.75297 23.6249H12.3329L5.72576 38.3408C5.21884 39.4646 5.59688 40.777 6.6365 41.4989C7.67612 42.2207 9.09379 42.1551 10.0647 41.3512L32.0599 22.9769C32.9191 22.255 33.2284 21.0984 32.8246 20.0813C32.4208 19.0641 31.3983 18.3833 30.247 18.3833H20.6671L27.2742 3.65921Z" fill="#FAE650"/>
</svg>
