<svg width="40" height="57" viewBox="0 0 40 57" fill="none" xmlns="http://www.w3.org/2000/svg">
<g clip-path="url(#clip0_723_3617)">
<path d="M14.3089 1.61328H15.4357C19.8228 1.61328 23.3793 5.12723 23.3793 9.46191V35.123H6.36523V9.46191C6.36523 5.12723 9.92173 1.61328 14.3089 1.61328Z" fill="white"/>
<path fill-rule="evenodd" clip-rule="evenodd" d="M14.3099 3.22852C10.825 3.22852 8.00003 6.01973 8.00003 9.46289V33.5098H21.7465V9.46289C21.7465 6.01973 18.9215 3.22852 15.4366 3.22852H14.3099ZM4.73242 9.46289C4.73242 4.23668 9.0204 0 14.3099 0H15.4366C20.7261 0 25.0141 4.23668 25.0141 9.46289V36.7383H4.73242V9.46289Z" fill="#348CFF"/>
<path d="M14.9869 55.3848C22.3611 55.3848 28.339 49.4784 28.339 42.1924C28.339 34.9064 22.3611 29 14.9869 29C7.61271 29 1.63477 34.9064 1.63477 42.1924C1.63477 49.4784 7.61271 55.3848 14.9869 55.3848Z" fill="white"/>
<path fill-rule="evenodd" clip-rule="evenodd" d="M14.9859 30.6152C8.51407 30.6152 3.26761 35.7989 3.26761 42.1934C3.26761 48.5878 8.51407 53.7715 14.9859 53.7715C21.4578 53.7715 26.7042 48.5878 26.7042 42.1934C26.7042 35.7989 21.4578 30.6152 14.9859 30.6152ZM0 42.1934C0 34.0159 6.70942 27.3867 14.9859 27.3867C23.2624 27.3867 29.9718 34.0159 29.9718 42.1934C29.9718 50.3709 23.2624 57 14.9859 57C6.70942 57 0 50.3709 0 42.1934Z" fill="#348CFF"/>
<path d="M14.9867 50.9883C19.9651 50.9883 24.0008 47.0008 24.0008 42.082C24.0008 37.1632 19.9651 33.1758 14.9867 33.1758C10.0084 33.1758 5.97266 37.1632 5.97266 42.082C5.97266 47.0008 10.0084 50.9883 14.9867 50.9883Z" fill="#348CFF"/>
<path d="M38.1973 25.7168H30.1973C29.2016 25.7168 28.3945 26.5142 28.3945 27.498C28.3945 28.4819 29.2016 29.2793 30.1973 29.2793H38.1973C39.1931 29.2793 40.0002 28.4819 40.0002 27.498C40.0002 26.5142 39.1931 25.7168 38.1973 25.7168Z" fill="#348CFF"/>
<path d="M38.1973 13.8047H30.1973C29.2016 13.8047 28.3945 14.6021 28.3945 15.5859C28.3945 16.5697 29.2016 17.3672 30.1973 17.3672H38.1973C39.1931 17.3672 40.0002 16.5697 40.0002 15.5859C40.0002 14.6021 39.1931 13.8047 38.1973 13.8047Z" fill="#348CFF"/>
<path d="M35.3804 19.7051H30.1973C29.2016 19.7051 28.3945 20.5025 28.3945 21.4863C28.3945 22.4701 29.2016 23.2676 30.1973 23.2676H35.3804C36.3762 23.2676 37.1833 22.4701 37.1833 21.4863C37.1833 20.5025 36.3762 19.7051 35.3804 19.7051Z" fill="#348CFF"/>
<path d="M35.3804 7.9043H30.1973C29.2016 7.9043 28.3945 8.70178 28.3945 9.68555C28.3945 10.6693 29.2016 11.4668 30.1973 11.4668H35.3804C36.3762 11.4668 37.1833 10.6693 37.1833 9.68555C37.1833 8.70178 36.3762 7.9043 35.3804 7.9043Z" fill="#348CFF"/>
<path d="M21.7465 27.1641H8V33.2871H21.7465V27.1641Z" fill="white"/>
<path d="M19.2685 25.6055C19.2685 23.269 17.3515 21.375 14.9868 21.375C12.622 21.375 10.7051 23.269 10.7051 25.6055V33.8438C10.7051 36.1802 12.622 38.0742 14.9868 38.0742C17.3515 38.0742 19.2685 36.1802 19.2685 33.8438V25.6055Z" fill="#348CFF"/>
</g>
<defs>
<clipPath id="clip0_723_3617">
<rect width="40" height="57" fill="white"/>
</clipPath>
</defs>
</svg>
