<svg width="27" height="25" viewBox="0 0 27 25" fill="none" xmlns="http://www.w3.org/2000/svg">
<circle cx="9.31523" cy="13.5027" r="9.31523" fill="#E5E5E5"/>
<g filter="url(#filter0_d_847_2295)">
<path d="M8.95898 11.9498V5C8.95898 3.89543 9.8632 2.97961 10.9554 3.14459C16.6226 4.00069 18.9602 8.48454 19.664 11.9134C19.8904 13.0161 18.9797 13.9498 17.854 13.9498H10.959C9.85441 13.9498 8.95898 13.0543 8.95898 11.9498Z" fill="#348CFF"/>
</g>
<path d="M10.9893 10.4805V8.37147H11.3913V10.4805H10.9893ZM10.5753 8.72547V8.37147H11.3613V8.72547H10.5753ZM12.7569 10.4805V9.64947C12.7569 9.56347 12.7299 9.49347 12.6759 9.43947C12.6219 9.38547 12.5519 9.35847 12.4659 9.35847C12.4099 9.35847 12.3599 9.37047 12.3159 9.39447C12.2719 9.41847 12.2369 9.45247 12.2109 9.49647C12.1869 9.54047 12.1749 9.59147 12.1749 9.64947L12.0219 9.57147C12.0219 9.45747 12.0459 9.35847 12.0939 9.27447C12.1419 9.18847 12.2079 9.12147 12.2919 9.07347C12.3779 9.02547 12.4759 9.00147 12.5859 9.00147C12.6959 9.00147 12.7929 9.02547 12.8769 9.07347C12.9629 9.12147 13.0299 9.18747 13.0779 9.27147C13.1259 9.35547 13.1499 9.45247 13.1499 9.56247V10.4805H12.7569ZM11.7819 10.4805V8.31147H12.1749V10.4805H11.7819ZM14.0394 10.5105C13.8974 10.5105 13.7674 10.4855 13.6494 10.4355C13.5314 10.3835 13.4324 10.3095 13.3524 10.2135L13.6224 9.94647C13.6624 10.0065 13.7194 10.0545 13.7934 10.0905C13.8674 10.1265 13.9474 10.1445 14.0334 10.1445C14.1134 10.1445 14.1824 10.1305 14.2404 10.1025C14.2984 10.0725 14.3434 10.0315 14.3754 9.97947C14.4094 9.92547 14.4264 9.86347 14.4264 9.79347C14.4264 9.71947 14.4094 9.65647 14.3754 9.60447C14.3434 9.55247 14.2964 9.51247 14.2344 9.48447C14.1724 9.45647 14.0984 9.44247 14.0124 9.44247C13.9744 9.44247 13.9354 9.44547 13.8954 9.45147C13.8554 9.45547 13.8214 9.46247 13.7934 9.47247L13.9734 9.24447C14.0234 9.22847 14.0724 9.21547 14.1204 9.20547C14.1704 9.19347 14.2164 9.18747 14.2584 9.18747C14.3664 9.18747 14.4634 9.21347 14.5494 9.26547C14.6374 9.31547 14.7064 9.38747 14.7564 9.48147C14.8084 9.57347 14.8344 9.68247 14.8344 9.80847C14.8344 9.94847 14.8014 10.0715 14.7354 10.1775C14.6694 10.2815 14.5764 10.3635 14.4564 10.4235C14.3384 10.4815 14.1994 10.5105 14.0394 10.5105ZM13.7934 9.47247V9.23847L14.3334 8.61147L14.8014 8.60547L14.2434 9.24447L13.7934 9.47247ZM13.4694 8.72547V8.37147H14.8014V8.60547L14.4684 8.72547H13.4694ZM15.9378 10.5105C15.7718 10.5105 15.6218 10.4655 15.4878 10.3755C15.3538 10.2855 15.2468 10.1585 15.1668 9.99447C15.0888 9.83047 15.0498 9.63947 15.0498 9.42147C15.0498 9.20347 15.0888 9.01347 15.1668 8.85147C15.2448 8.68947 15.3498 8.56347 15.4818 8.47347C15.6158 8.38347 15.7648 8.33847 15.9288 8.33847C16.0968 8.33847 16.2468 8.38347 16.3788 8.47347C16.5128 8.56347 16.6188 8.69047 16.6968 8.85447C16.7748 9.01647 16.8138 9.20747 16.8138 9.42747C16.8138 9.64547 16.7748 9.83647 16.6968 10.0005C16.6188 10.1625 16.5138 10.2885 16.3818 10.3785C16.2498 10.4665 16.1018 10.5105 15.9378 10.5105ZM15.9318 10.1415C16.0278 10.1415 16.1108 10.1145 16.1808 10.0605C16.2508 10.0065 16.3048 9.92647 16.3428 9.82047C16.3828 9.71447 16.4028 9.58247 16.4028 9.42447C16.4028 9.26647 16.3828 9.13447 16.3428 9.02847C16.3048 8.92247 16.2498 8.84347 16.1778 8.79147C16.1078 8.73747 16.0248 8.71047 15.9288 8.71047C15.8348 8.71047 15.7528 8.73747 15.6828 8.79147C15.6128 8.84347 15.5578 8.92247 15.5178 9.02847C15.4798 9.13247 15.4608 9.26347 15.4608 9.42147C15.4608 9.58147 15.4798 9.71447 15.5178 9.82047C15.5578 9.92647 15.6128 10.0065 15.6828 10.0605C15.7528 10.1145 15.8358 10.1415 15.9318 10.1415Z" fill="white"/>
<defs>
<filter id="filter0_d_847_2295" x="2.35898" y="0.525" width="23.9397" height="24.0252" filterUnits="userSpaceOnUse" color-interpolation-filters="sRGB">
<feFlood flood-opacity="0" result="BackgroundImageFix"/>
<feColorMatrix in="SourceAlpha" type="matrix" values="0 0 0 0 0 0 0 0 0 0 0 0 0 0 0 0 0 0 127 0" result="hardAlpha"/>
<feOffset dy="4"/>
<feGaussianBlur stdDeviation="3.3"/>
<feComposite in2="hardAlpha" operator="out"/>
<feColorMatrix type="matrix" values="0 0 0 0 0 0 0 0 0 0 0 0 0 0 0 0 0 0 0.15 0"/>
<feBlend mode="normal" in2="BackgroundImageFix" result="effect1_dropShadow_847_2295"/>
<feBlend mode="normal" in="SourceGraphic" in2="effect1_dropShadow_847_2295" result="shape"/>
</filter>
</defs>
</svg>
