<svg width="26" height="42" viewBox="0 0 26 42" fill="none" xmlns="http://www.w3.org/2000/svg">
<path d="M13 33.2143C15.9174 33.2143 18.7153 32.0704 20.7782 30.0343C22.8411 27.9982 24 25.2366 24 22.3571V19.6429M13 33.2143C10.0826 33.2143 7.28473 32.0704 5.22183 30.0343C3.15893 27.9982 2 25.2366 2 22.3571V19.6429M13 33.2143V40M6.125 40H19.875M13 27.7857C11.5413 27.7857 10.1424 27.2138 9.11091 26.1957C8.07946 25.1777 7.5 23.7969 7.5 22.3571V7.42857C7.5 5.98882 8.07946 4.60805 9.11091 3.58999C10.1424 2.57194 11.5413 2 13 2C14.4587 2 15.8576 2.57194 16.8891 3.58999C17.9205 4.60805 18.5 5.98882 18.5 7.42857V22.3571C18.5 23.7969 17.9205 25.1777 16.8891 26.1957C15.8576 27.2138 14.4587 27.7857 13 27.7857Z" stroke="#7C7C7C" stroke-width="3" stroke-linecap="round" stroke-linejoin="round"/>
</svg>
