<svg width="29" height="21" viewBox="0 0 29 21" fill="none" xmlns="http://www.w3.org/2000/svg">
<path d="M21.2342 20.6828H15.0591L15.0591 20.4586C15.0591 20.5333 15.0591 20.1447 15.0591 17.992C15.0591 15.8393 13.7359 15.3011 13.0742 15.3011H6.23753C4.47321 15.3011 0.94458 13.9556 0.94458 8.57387C0.94458 3.1921 4.32618 1.84666 6.01699 1.84666L27.8504 0.0527344L28.2915 6.77994L12.6332 7.6769L8.00184 7.90114C7.85482 7.90114 7.56076 7.99084 7.56076 8.34963C7.56076 8.70841 7.85479 8.79811 8.0018 8.79811H13.9564C19.6022 8.79811 21.1606 13.7314 21.2342 16.198V20.6828Z" fill="white"/>
</svg>
