<svg width="28" height="36" viewBox="0 0 28 36" fill="none" xmlns="http://www.w3.org/2000/svg">
<circle cx="10" cy="14" r="10" fill="#E5E5E5"/>
<g filter="url(#filter0_d_935_2246)">
<path d="M10 24V4C10 2.89543 10.899 1.99174 11.9889 2.17144C16.1826 2.86292 22 5.81361 22 14C22 22.1864 16.1826 25.1371 11.9889 25.8286C10.899 26.0083 10 25.1046 10 24Z" fill="#348CFF"/>
</g>
<path d="M11.6658 14.736L12.4788 13.896C12.5288 13.846 12.5688 13.8 12.5988 13.758C12.6288 13.716 12.6508 13.677 12.6648 13.641C12.6788 13.603 12.6858 13.565 12.6858 13.527C12.6858 13.445 12.6588 13.381 12.6048 13.335C12.5528 13.287 12.4838 13.263 12.3978 13.263C12.3138 13.263 12.2378 13.286 12.1698 13.332C12.1038 13.376 12.0398 13.449 11.9778 13.551L11.6628 13.278C11.7468 13.136 11.8538 13.029 11.9838 12.957C12.1138 12.885 12.2628 12.849 12.4308 12.849C12.5768 12.849 12.7028 12.876 12.8088 12.93C12.9168 12.984 12.9998 13.061 13.0578 13.161C13.1178 13.261 13.1478 13.378 13.1478 13.512C13.1478 13.596 13.1368 13.674 13.1148 13.746C13.0928 13.816 13.0568 13.886 13.0068 13.956C12.9588 14.024 12.8938 14.099 12.8118 14.181L12.2478 14.742L11.6658 14.736ZM11.6658 15V14.736L12.0648 14.598H13.1898V15H11.6658ZM14.4121 15V14.169C14.4121 14.093 14.3881 14.032 14.3401 13.986C14.2941 13.938 14.2351 13.914 14.1631 13.914C14.1131 13.914 14.0691 13.925 14.0311 13.947C13.9931 13.967 13.9631 13.997 13.9411 14.037C13.9191 14.075 13.9081 14.119 13.9081 14.169L13.7311 14.082C13.7311 13.968 13.7551 13.868 13.8031 13.782C13.8511 13.696 13.9181 13.63 14.0041 13.584C14.0901 13.536 14.1891 13.512 14.3011 13.512C14.4151 13.512 14.5151 13.536 14.6011 13.584C14.6871 13.63 14.7531 13.695 14.7991 13.779C14.8471 13.861 14.8711 13.957 14.8711 14.067V15H14.4121ZM13.4491 15V12.822H13.9081V15H13.4491ZM16.0059 15.033C15.8359 15.033 15.6819 14.987 15.5439 14.895C15.4059 14.803 15.2969 14.675 15.2169 14.511C15.1389 14.345 15.0999 14.154 15.0999 13.938C15.0999 13.72 15.1389 13.53 15.2169 13.368C15.2949 13.204 15.4019 13.077 15.5379 12.987C15.6739 12.895 15.8279 12.849 15.9999 12.849C16.1739 12.849 16.3289 12.895 16.4649 12.987C16.6009 13.077 16.7079 13.204 16.7859 13.368C16.8659 13.532 16.9059 13.723 16.9059 13.941C16.9059 14.159 16.8659 14.35 16.7859 14.514C16.7079 14.678 16.6009 14.806 16.4649 14.898C16.3309 14.988 16.1779 15.033 16.0059 15.033ZM16.0029 14.616C16.0909 14.616 16.1669 14.591 16.2309 14.541C16.2949 14.489 16.3439 14.413 16.3779 14.313C16.4139 14.211 16.4319 14.087 16.4319 13.941C16.4319 13.793 16.4139 13.669 16.3779 13.569C16.3439 13.469 16.2949 13.394 16.2309 13.344C16.1669 13.292 16.0899 13.266 15.9999 13.266C15.9139 13.266 15.8379 13.291 15.7719 13.341C15.7079 13.391 15.6589 13.466 15.6249 13.566C15.5909 13.666 15.5739 13.79 15.5739 13.938C15.5739 14.086 15.5909 14.21 15.6249 14.31C15.6589 14.41 15.7079 14.486 15.7719 14.538C15.8379 14.59 15.9149 14.616 16.0029 14.616ZM18.004 15.033C17.834 15.033 17.68 14.987 17.542 14.895C17.404 14.803 17.295 14.675 17.215 14.511C17.137 14.345 17.098 14.154 17.098 13.938C17.098 13.72 17.137 13.53 17.215 13.368C17.293 13.204 17.4 13.077 17.536 12.987C17.672 12.895 17.826 12.849 17.998 12.849C18.172 12.849 18.327 12.895 18.463 12.987C18.599 13.077 18.706 13.204 18.784 13.368C18.864 13.532 18.904 13.723 18.904 13.941C18.904 14.159 18.864 14.35 18.784 14.514C18.706 14.678 18.599 14.806 18.463 14.898C18.329 14.988 18.176 15.033 18.004 15.033ZM18.001 14.616C18.089 14.616 18.165 14.591 18.229 14.541C18.293 14.489 18.342 14.413 18.376 14.313C18.412 14.211 18.43 14.087 18.43 13.941C18.43 13.793 18.412 13.669 18.376 13.569C18.342 13.469 18.293 13.394 18.229 13.344C18.165 13.292 18.088 13.266 17.998 13.266C17.912 13.266 17.836 13.291 17.77 13.341C17.706 13.391 17.657 13.466 17.623 13.566C17.589 13.666 17.572 13.79 17.572 13.938C17.572 14.086 17.589 14.21 17.623 14.31C17.657 14.41 17.706 14.486 17.77 14.538C17.836 14.59 17.913 14.616 18.001 14.616Z" fill="white"/>
<defs>
<filter id="filter0_d_935_2246" x="4" y="0.148438" width="24" height="35.7031" filterUnits="userSpaceOnUse" color-interpolation-filters="sRGB">
<feFlood flood-opacity="0" result="BackgroundImageFix"/>
<feColorMatrix in="SourceAlpha" type="matrix" values="0 0 0 0 0 0 0 0 0 0 0 0 0 0 0 0 0 0 127 0" result="hardAlpha"/>
<feOffset dy="4"/>
<feGaussianBlur stdDeviation="3"/>
<feComposite in2="hardAlpha" operator="out"/>
<feColorMatrix type="matrix" values="0 0 0 0 0 0 0 0 0 0 0 0 0 0 0 0 0 0 0.15 0"/>
<feBlend mode="normal" in2="BackgroundImageFix" result="effect1_dropShadow_935_2246"/>
<feBlend mode="normal" in="SourceGraphic" in2="effect1_dropShadow_935_2246" result="shape"/>
</filter>
</defs>
</svg>
