<svg width="30" height="34" viewBox="0 0 30 34" fill="none" xmlns="http://www.w3.org/2000/svg">
<circle cx="13" cy="13" r="10" fill="#E5E5E5"/>
<g filter="url(#filter0_d_935_2247)">
<path d="M13.0909 12.2586V4C13.0909 2.89543 13.9925 1.98449 15.0804 2.17587C19.4827 2.9503 24 6.31881 24 13C24 20.7 19.0909 24 13.0909 24C9.66826 24 7.70623 23.0679 6.73021 22.2006C6.17442 21.7067 6.30359 20.8968 6.78823 20.3329L12.6077 13.5623C12.9195 13.1995 13.0909 12.737 13.0909 12.2586Z" fill="#348CFF"/>
</g>
<path d="M13.988 14.736L14.801 13.896C14.851 13.846 14.891 13.8 14.921 13.758C14.951 13.716 14.973 13.677 14.987 13.641C15.001 13.603 15.008 13.565 15.008 13.527C15.008 13.445 14.981 13.381 14.927 13.335C14.875 13.287 14.806 13.263 14.72 13.263C14.636 13.263 14.56 13.286 14.492 13.332C14.426 13.376 14.362 13.449 14.3 13.551L13.985 13.278C14.069 13.136 14.176 13.029 14.306 12.957C14.436 12.885 14.585 12.849 14.753 12.849C14.899 12.849 15.025 12.876 15.131 12.93C15.239 12.984 15.322 13.061 15.38 13.161C15.44 13.261 15.47 13.378 15.47 13.512C15.47 13.596 15.459 13.674 15.437 13.746C15.415 13.816 15.379 13.886 15.329 13.956C15.281 14.024 15.216 14.099 15.134 14.181L14.57 14.742L13.988 14.736ZM13.988 15V14.736L14.387 14.598H15.512V15H13.988ZM16.7344 15V14.169C16.7344 14.093 16.7104 14.032 16.6624 13.986C16.6164 13.938 16.5574 13.914 16.4854 13.914C16.4354 13.914 16.3914 13.925 16.3534 13.947C16.3154 13.967 16.2854 13.997 16.2634 14.037C16.2414 14.075 16.2304 14.119 16.2304 14.169L16.0534 14.082C16.0534 13.968 16.0774 13.868 16.1254 13.782C16.1734 13.696 16.2404 13.63 16.3264 13.584C16.4124 13.536 16.5114 13.512 16.6234 13.512C16.7374 13.512 16.8374 13.536 16.9234 13.584C17.0094 13.63 17.0754 13.695 17.1214 13.779C17.1694 13.861 17.1934 13.957 17.1934 14.067V15H16.7344ZM15.7714 15V12.822H16.2304V15H15.7714ZM18.0852 15.033C17.9392 15.033 17.8052 15.008 17.6832 14.958C17.5612 14.906 17.4582 14.832 17.3742 14.736L17.6772 14.433C17.7152 14.489 17.7702 14.535 17.8422 14.571C17.9162 14.605 17.9942 14.622 18.0762 14.622C18.1502 14.622 18.2142 14.609 18.2682 14.583C18.3222 14.557 18.3642 14.52 18.3942 14.472C18.4262 14.424 18.4422 14.367 18.4422 14.301C18.4422 14.235 18.4262 14.179 18.3942 14.133C18.3642 14.085 18.3192 14.048 18.2592 14.022C18.2012 13.996 18.1312 13.983 18.0492 13.983C18.0112 13.983 17.9712 13.986 17.9292 13.992C17.8892 13.996 17.8552 14.003 17.8272 14.013L18.0342 13.752C18.0902 13.736 18.1432 13.723 18.1932 13.713C18.2452 13.701 18.2932 13.695 18.3372 13.695C18.4452 13.695 18.5422 13.721 18.6282 13.773C18.7142 13.823 18.7822 13.895 18.8322 13.989C18.8842 14.081 18.9102 14.191 18.9102 14.319C18.9102 14.459 18.8752 14.583 18.8052 14.691C18.7372 14.799 18.6412 14.883 18.5172 14.943C18.3952 15.003 18.2512 15.033 18.0852 15.033ZM17.8272 14.013V13.752L18.3432 13.146L18.8712 13.143L18.3342 13.755L17.8272 14.013ZM17.5062 13.281V12.882H18.8712V13.143L18.5022 13.281H17.5062ZM20.004 15.033C19.834 15.033 19.68 14.987 19.542 14.895C19.404 14.803 19.295 14.675 19.215 14.511C19.137 14.345 19.098 14.154 19.098 13.938C19.098 13.72 19.137 13.53 19.215 13.368C19.293 13.204 19.4 13.077 19.536 12.987C19.672 12.895 19.826 12.849 19.998 12.849C20.172 12.849 20.327 12.895 20.463 12.987C20.599 13.077 20.706 13.204 20.784 13.368C20.864 13.532 20.904 13.723 20.904 13.941C20.904 14.159 20.864 14.35 20.784 14.514C20.706 14.678 20.599 14.806 20.463 14.898C20.329 14.988 20.176 15.033 20.004 15.033ZM20.001 14.616C20.089 14.616 20.165 14.591 20.229 14.541C20.293 14.489 20.342 14.413 20.376 14.313C20.412 14.211 20.43 14.087 20.43 13.941C20.43 13.793 20.412 13.669 20.376 13.569C20.342 13.469 20.293 13.394 20.229 13.344C20.165 13.292 20.088 13.266 19.998 13.266C19.912 13.266 19.836 13.291 19.77 13.341C19.706 13.391 19.657 13.466 19.623 13.566C19.589 13.666 19.572 13.79 19.572 13.938C19.572 14.086 19.589 14.21 19.623 14.31C19.657 14.41 19.706 14.486 19.77 14.538C19.836 14.59 19.913 14.616 20.001 14.616Z" fill="white"/>
<defs>
<filter id="filter0_d_935_2247" x="0.365906" y="0.150391" width="29.6341" height="33.8496" filterUnits="userSpaceOnUse" color-interpolation-filters="sRGB">
<feFlood flood-opacity="0" result="BackgroundImageFix"/>
<feColorMatrix in="SourceAlpha" type="matrix" values="0 0 0 0 0 0 0 0 0 0 0 0 0 0 0 0 0 0 127 0" result="hardAlpha"/>
<feOffset dy="4"/>
<feGaussianBlur stdDeviation="3"/>
<feComposite in2="hardAlpha" operator="out"/>
<feColorMatrix type="matrix" values="0 0 0 0 0 0 0 0 0 0 0 0 0 0 0 0 0 0 0.15 0"/>
<feBlend mode="normal" in2="BackgroundImageFix" result="effect1_dropShadow_935_2247"/>
<feBlend mode="normal" in="SourceGraphic" in2="effect1_dropShadow_935_2247" result="shape"/>
</filter>
</defs>
</svg>
