<svg width="34" height="34" viewBox="0 0 34 34" fill="none" xmlns="http://www.w3.org/2000/svg">
<circle cx="17" cy="13" r="10" fill="#E5E5E5"/>
<rect x="6" y="13" width="21" height="1" fill="black"/>
<g filter="url(#filter0_d_935_2249)">
<path d="M17 10.5858V3C17 2.44772 17.4506 1.99569 18.0013 2.037C24.5088 2.5251 28 7.76255 28 13C28 18.5 24.7 24 17 24C9.3 24 6 18.5 6 13C6 9.33627 7.52533 6.94364 8.67086 5.82214C9.01148 5.48866 9.54263 5.54263 9.87969 5.87969L15.2929 11.2929C15.9229 11.9229 17 11.4767 17 10.5858Z" fill="#348CFF"/>
</g>
<path d="M15.6926 17.033C15.5466 17.033 15.4126 17.008 15.2906 16.958C15.1686 16.906 15.0656 16.832 14.9816 16.736L15.2846 16.433C15.3226 16.489 15.3776 16.535 15.4496 16.571C15.5236 16.605 15.6016 16.622 15.6836 16.622C15.7576 16.622 15.8216 16.609 15.8756 16.583C15.9296 16.557 15.9716 16.52 16.0016 16.472C16.0336 16.424 16.0496 16.367 16.0496 16.301C16.0496 16.235 16.0336 16.179 16.0016 16.133C15.9716 16.085 15.9266 16.048 15.8666 16.022C15.8086 15.996 15.7386 15.983 15.6566 15.983C15.6186 15.983 15.5786 15.986 15.5366 15.992C15.4966 15.996 15.4626 16.003 15.4346 16.013L15.6416 15.752C15.6976 15.736 15.7506 15.723 15.8006 15.713C15.8526 15.701 15.9006 15.695 15.9446 15.695C16.0526 15.695 16.1496 15.721 16.2356 15.773C16.3216 15.823 16.3896 15.895 16.4396 15.989C16.4916 16.081 16.5176 16.191 16.5176 16.319C16.5176 16.459 16.4826 16.583 16.4126 16.691C16.3446 16.799 16.2486 16.883 16.1246 16.943C16.0026 17.003 15.8586 17.033 15.6926 17.033ZM15.4346 16.013V15.752L15.9506 15.146L16.4786 15.143L15.9416 15.755L15.4346 16.013ZM15.1136 15.281V14.882H16.4786V15.143L16.1096 15.281H15.1136ZM17.7344 17V16.169C17.7344 16.093 17.7104 16.032 17.6624 15.986C17.6164 15.938 17.5574 15.914 17.4854 15.914C17.4354 15.914 17.3914 15.925 17.3534 15.947C17.3154 15.967 17.2854 15.997 17.2634 16.037C17.2414 16.075 17.2304 16.119 17.2304 16.169L17.0534 16.082C17.0534 15.968 17.0774 15.868 17.1254 15.782C17.1734 15.696 17.2404 15.63 17.3264 15.584C17.4124 15.536 17.5114 15.512 17.6234 15.512C17.7374 15.512 17.8374 15.536 17.9234 15.584C18.0094 15.63 18.0754 15.695 18.1214 15.779C18.1694 15.861 18.1934 15.957 18.1934 16.067V17H17.7344ZM16.7714 17V14.822H17.2304V17H16.7714ZM19.0852 17.033C18.9392 17.033 18.8052 17.008 18.6832 16.958C18.5612 16.906 18.4582 16.832 18.3742 16.736L18.6772 16.433C18.7152 16.489 18.7702 16.535 18.8422 16.571C18.9162 16.605 18.9942 16.622 19.0762 16.622C19.1502 16.622 19.2142 16.609 19.2682 16.583C19.3222 16.557 19.3642 16.52 19.3942 16.472C19.4262 16.424 19.4422 16.367 19.4422 16.301C19.4422 16.235 19.4262 16.179 19.3942 16.133C19.3642 16.085 19.3192 16.048 19.2592 16.022C19.2012 15.996 19.1312 15.983 19.0492 15.983C19.0112 15.983 18.9712 15.986 18.9292 15.992C18.8892 15.996 18.8552 16.003 18.8272 16.013L19.0342 15.752C19.0902 15.736 19.1432 15.723 19.1932 15.713C19.2452 15.701 19.2932 15.695 19.3372 15.695C19.4452 15.695 19.5422 15.721 19.6282 15.773C19.7142 15.823 19.7822 15.895 19.8322 15.989C19.8842 16.081 19.9102 16.191 19.9102 16.319C19.9102 16.459 19.8752 16.583 19.8052 16.691C19.7372 16.799 19.6412 16.883 19.5172 16.943C19.3952 17.003 19.2512 17.033 19.0852 17.033ZM18.8272 16.013V15.752L19.3432 15.146L19.8712 15.143L19.3342 15.755L18.8272 16.013ZM18.5062 15.281V14.882H19.8712V15.143L19.5022 15.281H18.5062ZM21.004 17.033C20.834 17.033 20.68 16.987 20.542 16.895C20.404 16.803 20.295 16.675 20.215 16.511C20.137 16.345 20.098 16.154 20.098 15.938C20.098 15.72 20.137 15.53 20.215 15.368C20.293 15.204 20.4 15.077 20.536 14.987C20.672 14.895 20.826 14.849 20.998 14.849C21.172 14.849 21.327 14.895 21.463 14.987C21.599 15.077 21.706 15.204 21.784 15.368C21.864 15.532 21.904 15.723 21.904 15.941C21.904 16.159 21.864 16.35 21.784 16.514C21.706 16.678 21.599 16.806 21.463 16.898C21.329 16.988 21.176 17.033 21.004 17.033ZM21.001 16.616C21.089 16.616 21.165 16.591 21.229 16.541C21.293 16.489 21.342 16.413 21.376 16.313C21.412 16.211 21.43 16.087 21.43 15.941C21.43 15.793 21.412 15.669 21.376 15.569C21.342 15.469 21.293 15.394 21.229 15.344C21.165 15.292 21.088 15.266 20.998 15.266C20.912 15.266 20.836 15.291 20.77 15.341C20.706 15.391 20.657 15.466 20.623 15.566C20.589 15.666 20.572 15.79 20.572 15.938C20.572 16.086 20.589 16.21 20.623 16.31C20.657 16.41 20.706 16.486 20.77 16.538C20.836 16.59 20.913 16.616 21.001 16.616Z" fill="white"/>
<defs>
<filter id="filter0_d_935_2249" x="0" y="0.0351562" width="34" height="33.9648" filterUnits="userSpaceOnUse" color-interpolation-filters="sRGB">
<feFlood flood-opacity="0" result="BackgroundImageFix"/>
<feColorMatrix in="SourceAlpha" type="matrix" values="0 0 0 0 0 0 0 0 0 0 0 0 0 0 0 0 0 0 127 0" result="hardAlpha"/>
<feOffset dy="4"/>
<feGaussianBlur stdDeviation="3"/>
<feComposite in2="hardAlpha" operator="out"/>
<feColorMatrix type="matrix" values="0 0 0 0 0 0 0 0 0 0 0 0 0 0 0 0 0 0 0.15 0"/>
<feBlend mode="normal" in2="BackgroundImageFix" result="effect1_dropShadow_935_2249"/>
<feBlend mode="normal" in="SourceGraphic" in2="effect1_dropShadow_935_2249" result="shape"/>
</filter>
</defs>
</svg>
