<svg width="25" height="24" viewBox="0 0 25 24" fill="none" xmlns="http://www.w3.org/2000/svg">
<circle cx="10" cy="14" r="10" fill="#E5E5E5"/>
<g filter="url(#filter0_d_935_2242)">
<path d="M10 9.39756V4C10 2.89543 10.901 1.98428 11.9931 2.15029C14.3422 2.5074 16.2353 3.44361 17.5161 4.3331C18.4092 4.95335 18.3647 6.19291 17.5698 6.93484L13.3646 10.8597C12.0862 12.0529 10 11.1463 10 9.39756Z" fill="#348CFF"/>
</g>
<path d="M10.9813 7.03C10.8393 7.03 10.7093 7.005 10.5913 6.955C10.4733 6.903 10.3743 6.829 10.2943 6.733L10.5643 6.466C10.6043 6.526 10.6613 6.574 10.7353 6.61C10.8093 6.646 10.8893 6.664 10.9753 6.664C11.0553 6.664 11.1243 6.65 11.1823 6.622C11.2403 6.592 11.2853 6.551 11.3173 6.499C11.3513 6.445 11.3683 6.383 11.3683 6.313C11.3683 6.239 11.3513 6.176 11.3173 6.124C11.2853 6.072 11.2383 6.032 11.1763 6.004C11.1143 5.976 11.0403 5.962 10.9543 5.962C10.9163 5.962 10.8773 5.965 10.8373 5.971C10.7973 5.975 10.7633 5.982 10.7353 5.992L10.9153 5.764C10.9653 5.748 11.0143 5.735 11.0623 5.725C11.1123 5.713 11.1583 5.707 11.2003 5.707C11.3083 5.707 11.4053 5.733 11.4913 5.785C11.5793 5.835 11.6483 5.907 11.6983 6.001C11.7503 6.093 11.7763 6.202 11.7763 6.328C11.7763 6.468 11.7433 6.591 11.6773 6.697C11.6113 6.801 11.5183 6.883 11.3983 6.943C11.2803 7.001 11.1413 7.03 10.9813 7.03ZM10.7353 5.992V5.758L11.2753 5.131L11.7433 5.125L11.1853 5.764L10.7353 5.992ZM10.4113 5.245V4.891H11.7433V5.125L11.4103 5.245H10.4113ZM12.8797 7.03C12.7137 7.03 12.5637 6.985 12.4297 6.895C12.2957 6.805 12.1887 6.678 12.1087 6.514C12.0307 6.35 11.9917 6.159 11.9917 5.941C11.9917 5.723 12.0307 5.533 12.1087 5.371C12.1867 5.209 12.2917 5.083 12.4237 4.993C12.5577 4.903 12.7067 4.858 12.8707 4.858C13.0387 4.858 13.1887 4.903 13.3207 4.993C13.4547 5.083 13.5607 5.21 13.6387 5.374C13.7167 5.536 13.7557 5.727 13.7557 5.947C13.7557 6.165 13.7167 6.356 13.6387 6.52C13.5607 6.682 13.4557 6.808 13.3237 6.898C13.1917 6.986 13.0437 7.03 12.8797 7.03ZM12.8737 6.661C12.9697 6.661 13.0527 6.634 13.1227 6.58C13.1927 6.526 13.2467 6.446 13.2847 6.34C13.3247 6.234 13.3447 6.102 13.3447 5.944C13.3447 5.786 13.3247 5.654 13.2847 5.548C13.2467 5.442 13.1917 5.363 13.1197 5.311C13.0497 5.257 12.9667 5.23 12.8707 5.23C12.7767 5.23 12.6947 5.257 12.6247 5.311C12.5547 5.363 12.4997 5.442 12.4597 5.548C12.4217 5.652 12.4027 5.783 12.4027 5.941C12.4027 6.101 12.4217 6.234 12.4597 6.34C12.4997 6.446 12.5547 6.526 12.6247 6.58C12.6947 6.634 12.7777 6.661 12.8737 6.661ZM14.0382 7V5.551H14.4312V7H14.0382ZM14.9832 7V6.145C14.9832 6.061 14.9562 5.996 14.9022 5.95C14.8502 5.902 14.7852 5.878 14.7072 5.878C14.6552 5.878 14.6082 5.889 14.5662 5.911C14.5242 5.931 14.4912 5.961 14.4672 6.001C14.4432 6.041 14.4312 6.089 14.4312 6.145L14.2782 6.07C14.2782 5.958 14.3022 5.861 14.3502 5.779C14.4002 5.697 14.4672 5.634 14.5512 5.59C14.6352 5.544 14.7302 5.521 14.8362 5.521C14.9362 5.521 15.0272 5.544 15.1092 5.59C15.1912 5.634 15.2562 5.697 15.3042 5.779C15.3522 5.859 15.3762 5.956 15.3762 6.07V7H14.9832ZM15.9282 7V6.145C15.9282 6.061 15.9012 5.996 15.8472 5.95C15.7952 5.902 15.7302 5.878 15.6522 5.878C15.6022 5.878 15.5552 5.889 15.5112 5.911C15.4692 5.931 15.4362 5.961 15.4122 6.001C15.3882 6.041 15.3762 6.089 15.3762 6.145L15.1512 6.091C15.1592 5.975 15.1902 5.875 15.2442 5.791C15.2982 5.705 15.3692 5.639 15.4572 5.593C15.5452 5.545 15.6432 5.521 15.7512 5.521C15.8592 5.521 15.9562 5.544 16.0422 5.59C16.1282 5.634 16.1962 5.698 16.2462 5.782C16.2962 5.866 16.3212 5.966 16.3212 6.082V7H15.9282Z" fill="white"/>
<defs>
<filter id="filter0_d_935_2242" x="4" y="0.130859" width="20.176" height="21.2715" filterUnits="userSpaceOnUse" color-interpolation-filters="sRGB">
<feFlood flood-opacity="0" result="BackgroundImageFix"/>
<feColorMatrix in="SourceAlpha" type="matrix" values="0 0 0 0 0 0 0 0 0 0 0 0 0 0 0 0 0 0 127 0" result="hardAlpha"/>
<feOffset dy="4"/>
<feGaussianBlur stdDeviation="3"/>
<feComposite in2="hardAlpha" operator="out"/>
<feColorMatrix type="matrix" values="0 0 0 0 0 0 0 0 0 0 0 0 0 0 0 0 0 0 0.15 0"/>
<feBlend mode="normal" in2="BackgroundImageFix" result="effect1_dropShadow_935_2242"/>
<feBlend mode="normal" in="SourceGraphic" in2="effect1_dropShadow_935_2242" result="shape"/>
</filter>
</defs>
</svg>
