<svg width="26" height="24" viewBox="0 0 26 24" fill="none" xmlns="http://www.w3.org/2000/svg">
<circle cx="10" cy="14" r="10" fill="#E5E5E5"/>
<g filter="url(#filter0_d_935_2243)">
<path d="M10 10.8866V4C10 2.89543 10.9039 1.97857 11.9937 2.15856C16.1789 2.84978 18.4706 5.66501 19.4759 7.89772C19.8641 8.75971 19.3848 9.70983 18.525 10.1029L12.8315 12.7056C11.5069 13.3111 10 12.3431 10 10.8866Z" fill="#348CFF"/>
</g>
<path d="M11.5056 7.256L12.2256 5.891H12.6756L11.9376 7.256H11.5056ZM11.5056 7.496V7.256L11.6556 7.139H13.1676V7.496H11.5056ZM12.5016 8V6.656H12.9036V8H12.5016ZM13.956 8.03C13.81 8.03 13.677 8.005 13.557 7.955C13.437 7.903 13.337 7.829 13.257 7.733L13.527 7.466C13.567 7.526 13.624 7.574 13.698 7.61C13.774 7.646 13.857 7.664 13.947 7.664C14.029 7.664 14.1 7.649 14.16 7.619C14.222 7.589 14.27 7.547 14.304 7.493C14.34 7.437 14.358 7.372 14.358 7.298C14.358 7.22 14.34 7.154 14.304 7.1C14.27 7.046 14.224 7.005 14.166 6.977C14.108 6.949 14.043 6.935 13.971 6.935C13.895 6.935 13.826 6.945 13.764 6.965C13.704 6.983 13.646 7.013 13.59 7.055L13.614 6.797C13.652 6.757 13.692 6.725 13.734 6.701C13.776 6.675 13.823 6.656 13.875 6.644C13.929 6.63 13.992 6.623 14.064 6.623C14.218 6.623 14.346 6.655 14.448 6.719C14.552 6.781 14.631 6.865 14.685 6.971C14.739 7.075 14.766 7.19 14.766 7.316C14.766 7.454 14.732 7.577 14.664 7.685C14.596 7.793 14.501 7.878 14.379 7.94C14.259 8 14.118 8.03 13.956 8.03ZM13.59 7.055L13.395 6.863L13.491 5.891H13.86L13.752 6.878L13.59 7.055ZM13.554 6.245L13.491 5.891H14.649V6.245H13.554ZM15.0382 8V6.551H15.4312V8H15.0382ZM15.9832 8V7.145C15.9832 7.061 15.9562 6.996 15.9022 6.95C15.8502 6.902 15.7852 6.878 15.7072 6.878C15.6552 6.878 15.6082 6.889 15.5662 6.911C15.5242 6.931 15.4912 6.961 15.4672 7.001C15.4432 7.041 15.4312 7.089 15.4312 7.145L15.2782 7.07C15.2782 6.958 15.3022 6.861 15.3502 6.779C15.4002 6.697 15.4672 6.634 15.5512 6.59C15.6352 6.544 15.7302 6.521 15.8362 6.521C15.9362 6.521 16.0272 6.544 16.1092 6.59C16.1912 6.634 16.2562 6.697 16.3042 6.779C16.3522 6.859 16.3762 6.956 16.3762 7.07V8H15.9832ZM16.9282 8V7.145C16.9282 7.061 16.9012 6.996 16.8472 6.95C16.7952 6.902 16.7302 6.878 16.6522 6.878C16.6022 6.878 16.5552 6.889 16.5112 6.911C16.4692 6.931 16.4362 6.961 16.4122 7.001C16.3882 7.041 16.3762 7.089 16.3762 7.145L16.1512 7.091C16.1592 6.975 16.1902 6.875 16.2442 6.791C16.2982 6.705 16.3692 6.639 16.4572 6.593C16.5452 6.545 16.6432 6.521 16.7512 6.521C16.8592 6.521 16.9562 6.544 17.0422 6.59C17.1282 6.634 17.1962 6.698 17.2462 6.782C17.2962 6.866 17.3212 6.966 17.3212 7.082V8H16.9282Z" fill="white"/>
<defs>
<filter id="filter0_d_935_2243" x="4" y="0.136719" width="21.6122" height="22.752" filterUnits="userSpaceOnUse" color-interpolation-filters="sRGB">
<feFlood flood-opacity="0" result="BackgroundImageFix"/>
<feColorMatrix in="SourceAlpha" type="matrix" values="0 0 0 0 0 0 0 0 0 0 0 0 0 0 0 0 0 0 127 0" result="hardAlpha"/>
<feOffset dy="4"/>
<feGaussianBlur stdDeviation="3"/>
<feComposite in2="hardAlpha" operator="out"/>
<feColorMatrix type="matrix" values="0 0 0 0 0 0 0 0 0 0 0 0 0 0 0 0 0 0 0.15 0"/>
<feBlend mode="normal" in2="BackgroundImageFix" result="effect1_dropShadow_935_2243"/>
<feBlend mode="normal" in="SourceGraphic" in2="effect1_dropShadow_935_2243" result="shape"/>
</filter>
</defs>
</svg>
