<svg width="28" height="24" viewBox="0 0 28 24" fill="none" xmlns="http://www.w3.org/2000/svg">
<circle cx="10" cy="14" r="10" fill="#E5E5E5"/>
<g filter="url(#filter0_d_935_2244)">
<path d="M10 12V4C10 2.89543 10.9034 1.98266 11.9989 2.12448C18.6775 2.98914 21.1966 8.1783 21.8286 12.0111C22.0083 13.101 21.1046 14 20 14H12C10.8954 14 10 13.1046 10 12Z" fill="#348CFF"/>
</g>
<path d="M12.6565 10V7.882H13.1245V10H12.6565ZM12.2485 8.281V7.882H13.0945V8.281H12.2485ZM14.4473 10V9.169C14.4473 9.093 14.4233 9.032 14.3753 8.986C14.3293 8.938 14.2703 8.914 14.1983 8.914C14.1483 8.914 14.1043 8.925 14.0663 8.947C14.0283 8.967 13.9983 8.997 13.9763 9.037C13.9543 9.075 13.9433 9.119 13.9433 9.169L13.7663 9.082C13.7663 8.968 13.7903 8.868 13.8383 8.782C13.8863 8.696 13.9533 8.63 14.0393 8.584C14.1253 8.536 14.2243 8.512 14.3363 8.512C14.4503 8.512 14.5503 8.536 14.6363 8.584C14.7223 8.63 14.7883 8.695 14.8343 8.779C14.8823 8.861 14.9063 8.957 14.9063 9.067V10H14.4473ZM13.4843 10V7.822H13.9433V10H13.4843ZM16.0351 10.03C15.8691 10.03 15.7191 9.985 15.5851 9.895C15.4511 9.805 15.3441 9.678 15.2641 9.514C15.1861 9.35 15.1471 9.159 15.1471 8.941C15.1471 8.723 15.1861 8.533 15.2641 8.371C15.3421 8.209 15.4471 8.083 15.5791 7.993C15.7131 7.903 15.8621 7.858 16.0261 7.858C16.1941 7.858 16.3441 7.903 16.4761 7.993C16.6101 8.083 16.7161 8.21 16.7941 8.374C16.8721 8.536 16.9111 8.727 16.9111 8.947C16.9111 9.165 16.8721 9.356 16.7941 9.52C16.7161 9.682 16.6111 9.808 16.4791 9.898C16.3471 9.986 16.1991 10.03 16.0351 10.03ZM16.0291 9.661C16.1251 9.661 16.2081 9.634 16.2781 9.58C16.3481 9.526 16.4021 9.446 16.4401 9.34C16.4801 9.234 16.5001 9.102 16.5001 8.944C16.5001 8.786 16.4801 8.654 16.4401 8.548C16.4021 8.442 16.3471 8.363 16.2751 8.311C16.2051 8.257 16.1221 8.23 16.0261 8.23C15.9321 8.23 15.8501 8.257 15.7801 8.311C15.7101 8.363 15.6551 8.442 15.6151 8.548C15.5771 8.652 15.5581 8.783 15.5581 8.941C15.5581 9.101 15.5771 9.234 15.6151 9.34C15.6551 9.446 15.7101 9.526 15.7801 9.58C15.8501 9.634 15.9331 9.661 16.0291 9.661ZM18.0155 10.03C17.8495 10.03 17.6995 9.985 17.5655 9.895C17.4315 9.805 17.3245 9.678 17.2445 9.514C17.1665 9.35 17.1275 9.159 17.1275 8.941C17.1275 8.723 17.1665 8.533 17.2445 8.371C17.3225 8.209 17.4275 8.083 17.5595 7.993C17.6935 7.903 17.8425 7.858 18.0065 7.858C18.1745 7.858 18.3245 7.903 18.4565 7.993C18.5905 8.083 18.6965 8.21 18.7745 8.374C18.8525 8.536 18.8915 8.727 18.8915 8.947C18.8915 9.165 18.8525 9.356 18.7745 9.52C18.6965 9.682 18.5915 9.808 18.4595 9.898C18.3275 9.986 18.1795 10.03 18.0155 10.03ZM18.0095 9.661C18.1055 9.661 18.1885 9.634 18.2585 9.58C18.3285 9.526 18.3825 9.446 18.4205 9.34C18.4605 9.234 18.4805 9.102 18.4805 8.944C18.4805 8.786 18.4605 8.654 18.4205 8.548C18.3825 8.442 18.3275 8.363 18.2555 8.311C18.1855 8.257 18.1025 8.23 18.0065 8.23C17.9125 8.23 17.8305 8.257 17.7605 8.311C17.6905 8.363 17.6355 8.442 17.5955 8.548C17.5575 8.652 17.5385 8.783 17.5385 8.941C17.5385 9.101 17.5575 9.234 17.5955 9.34C17.6355 9.446 17.6905 9.526 17.7605 9.58C17.8305 9.634 17.9135 9.661 18.0095 9.661Z" fill="white"/>
<defs>
<filter id="filter0_d_935_2244" x="4" y="0.109375" width="23.8514" height="23.8906" filterUnits="userSpaceOnUse" color-interpolation-filters="sRGB">
<feFlood flood-opacity="0" result="BackgroundImageFix"/>
<feColorMatrix in="SourceAlpha" type="matrix" values="0 0 0 0 0 0 0 0 0 0 0 0 0 0 0 0 0 0 127 0" result="hardAlpha"/>
<feOffset dy="4"/>
<feGaussianBlur stdDeviation="3"/>
<feComposite in2="hardAlpha" operator="out"/>
<feColorMatrix type="matrix" values="0 0 0 0 0 0 0 0 0 0 0 0 0 0 0 0 0 0 0.15 0"/>
<feBlend mode="normal" in2="BackgroundImageFix" result="effect1_dropShadow_935_2244"/>
<feBlend mode="normal" in="SourceGraphic" in2="effect1_dropShadow_935_2244" result="shape"/>
</filter>
</defs>
</svg>
