<svg width="28" height="34" viewBox="0 0 28 34" fill="none" xmlns="http://www.w3.org/2000/svg">
<circle cx="10" cy="14" r="10" fill="#E5E5E5"/>
<g filter="url(#filter0_d_935_2245)">
<path d="M10 14.7149V4C10 2.89543 10.9007 1.98298 11.9958 2.12757C18.514 2.98825 22 8.09802 22 14.2222C22 18.3263 20.1363 21.2677 18.5423 22.8835C17.8384 23.5971 16.7181 23.4273 16.0727 22.6604L10.4698 16.0027C10.1664 15.6421 10 15.1861 10 14.7149Z" fill="#348CFF"/>
</g>
<path d="M12.9875 13V10.882H13.4555V13H12.9875ZM12.5795 11.281V10.882H13.4255V11.281H12.5795ZM14.7783 13V12.169C14.7783 12.093 14.7543 12.032 14.7063 11.986C14.6603 11.938 14.6013 11.914 14.5293 11.914C14.4793 11.914 14.4353 11.925 14.3973 11.947C14.3593 11.967 14.3293 11.997 14.3073 12.037C14.2853 12.075 14.2743 12.119 14.2743 12.169L14.0973 12.082C14.0973 11.968 14.1213 11.868 14.1693 11.782C14.2173 11.696 14.2843 11.63 14.3703 11.584C14.4563 11.536 14.5553 11.512 14.6673 11.512C14.7813 11.512 14.8813 11.536 14.9673 11.584C15.0533 11.63 15.1193 11.695 15.1653 11.779C15.2133 11.861 15.2373 11.957 15.2373 12.067V13H14.7783ZM13.8153 13V10.822H14.2743V13H13.8153ZM16.1171 13.03C15.9751 13.03 15.8451 13.005 15.7271 12.955C15.6091 12.903 15.5101 12.829 15.4301 12.733L15.7001 12.466C15.7401 12.526 15.7971 12.574 15.8711 12.61C15.9451 12.646 16.0251 12.664 16.1111 12.664C16.1911 12.664 16.2601 12.65 16.3181 12.622C16.3761 12.592 16.4211 12.551 16.4531 12.499C16.4871 12.445 16.5041 12.383 16.5041 12.313C16.5041 12.239 16.4871 12.176 16.4531 12.124C16.4211 12.072 16.3741 12.032 16.3121 12.004C16.2501 11.976 16.1761 11.962 16.0901 11.962C16.0521 11.962 16.0131 11.965 15.9731 11.971C15.9331 11.975 15.8991 11.982 15.8711 11.992L16.0511 11.764C16.1011 11.748 16.1501 11.735 16.1981 11.725C16.2481 11.713 16.2941 11.707 16.3361 11.707C16.4441 11.707 16.5411 11.733 16.6271 11.785C16.7151 11.835 16.7841 11.907 16.8341 12.001C16.8861 12.093 16.9121 12.202 16.9121 12.328C16.9121 12.468 16.8791 12.591 16.8131 12.697C16.7471 12.801 16.6541 12.883 16.5341 12.943C16.4161 13.001 16.2771 13.03 16.1171 13.03ZM15.8711 11.992V11.758L16.4111 11.131L16.8791 11.125L16.3211 11.764L15.8711 11.992ZM15.5471 11.245V10.891H16.8791V11.125L16.5461 11.245H15.5471ZM18.0155 13.03C17.8495 13.03 17.6995 12.985 17.5655 12.895C17.4315 12.805 17.3245 12.678 17.2445 12.514C17.1665 12.35 17.1275 12.159 17.1275 11.941C17.1275 11.723 17.1665 11.533 17.2445 11.371C17.3225 11.209 17.4275 11.083 17.5595 10.993C17.6935 10.903 17.8425 10.858 18.0065 10.858C18.1745 10.858 18.3245 10.903 18.4565 10.993C18.5905 11.083 18.6965 11.21 18.7745 11.374C18.8525 11.536 18.8915 11.727 18.8915 11.947C18.8915 12.165 18.8525 12.356 18.7745 12.52C18.6965 12.682 18.5915 12.808 18.4595 12.898C18.3275 12.986 18.1795 13.03 18.0155 13.03ZM18.0095 12.661C18.1055 12.661 18.1885 12.634 18.2585 12.58C18.3285 12.526 18.3825 12.446 18.4205 12.34C18.4605 12.234 18.4805 12.102 18.4805 11.944C18.4805 11.786 18.4605 11.654 18.4205 11.548C18.3825 11.442 18.3275 11.363 18.2555 11.311C18.1855 11.257 18.1025 11.23 18.0065 11.23C17.9125 11.23 17.8305 11.257 17.7605 11.311C17.6905 11.363 17.6355 11.442 17.5955 11.548C17.5575 11.652 17.5385 11.783 17.5385 11.941C17.5385 12.101 17.5575 12.234 17.5955 12.34C17.6355 12.446 17.6905 12.526 17.7605 12.58C17.8305 12.634 17.9135 12.661 18.0095 12.661Z" fill="white"/>
<defs>
<filter id="filter0_d_935_2245" x="4" y="0.113281" width="24" height="33.2227" filterUnits="userSpaceOnUse" color-interpolation-filters="sRGB">
<feFlood flood-opacity="0" result="BackgroundImageFix"/>
<feColorMatrix in="SourceAlpha" type="matrix" values="0 0 0 0 0 0 0 0 0 0 0 0 0 0 0 0 0 0 127 0" result="hardAlpha"/>
<feOffset dy="4"/>
<feGaussianBlur stdDeviation="3"/>
<feComposite in2="hardAlpha" operator="out"/>
<feColorMatrix type="matrix" values="0 0 0 0 0 0 0 0 0 0 0 0 0 0 0 0 0 0 0.15 0"/>
<feBlend mode="normal" in2="BackgroundImageFix" result="effect1_dropShadow_935_2245"/>
<feBlend mode="normal" in="SourceGraphic" in2="effect1_dropShadow_935_2245" result="shape"/>
</filter>
</defs>
</svg>
