<svg width="146" height="146" viewBox="0 0 146 146" fill="none" xmlns="http://www.w3.org/2000/svg">
<circle cx="73" cy="73" r="71" stroke="#ACE5FC" stroke-width="4"/>
<path opacity="0.67" d="M104.753 81.9189C120.504 86.1188 134.608 75.6726 141.878 71.4944C141.878 75.6746 143.071 81.9189 137.997 97.4712C132.923 113.024 127.386 115.214 119.196 124.045C99.2006 142.856 61.3601 150.034 33.5452 130.017C16.5343 117.775 12.3562 107.623 9.66972 101.054L6.68593 92.9924L4.59688 84.6321L4 75.9731V67.6127C12.0578 65.5227 27.9445 62.5737 41.0003 68.4838C60.8852 77.4854 86.2827 76.9936 104.753 81.9189Z" fill="#67B6FF" stroke="#67B6FF"/>
<path opacity="0.67" d="M41.2466 80.9788C25.4961 85.1936 11.3915 74.7104 4.12211 70.5174C4.12219 74.7124 2.92867 80.9788 8.00266 96.5862C13.0767 112.194 19.5325 116.414 27.5974 125.099C47.5926 143.977 84.6399 149.335 112.455 129.247C129.466 116.962 133.644 106.774 136.33 100.182L139.314 92.0915L141.403 83.7016L142 75.012V66.622C133.942 64.5245 118.055 61.5651 105 67.4962C85.1148 76.5296 59.7173 76.036 41.2466 80.9788Z" fill="#67B6FF" stroke="#67B6FF"/>
</svg>
